<mxfile>
    <diagram id="aquU7c-cepH_y-JZrsKD" name="Pagina-1">
        <mxGraphModel dx="1001" dy="790" grid="1" gridSize="10" guides="1" tooltips="1" connect="1" arrows="1" fold="1" page="1" pageScale="1" pageWidth="850" pageHeight="1100" background="#F4F1DE" math="0" shadow="0">
            <root>
                <mxCell id="0"/>
                <mxCell id="1" parent="0"/>
                <mxCell id="2" value="User" style="shape=umlActor;html=1;verticalLabelPosition=bottom;verticalAlign=top;align=center;fillColor=#F2CC8F;strokeColor=#E07A5F;fontColor=#393C56;" vertex="1" parent="1">
                    <mxGeometry x="80" y="140" width="30" height="60" as="geometry"/>
                </mxCell>
                <mxCell id="4" value="View products catalog" style="ellipse;whiteSpace=wrap;html=1;rounded=0;sketch=0;strokeColor=#E07A5F;fillColor=#F2CC8F;fontColor=#393C56;" vertex="1" parent="1">
                    <mxGeometry x="200" y="30" width="140" height="70" as="geometry"/>
                </mxCell>
                <mxCell id="5" value="Insert product into his &lt;br&gt;shopping cart" style="ellipse;whiteSpace=wrap;html=1;rounded=0;sketch=0;strokeColor=#E07A5F;fillColor=#F2CC8F;fontColor=#393C56;" vertex="1" parent="1">
                    <mxGeometry x="330" y="290" width="140" height="70" as="geometry"/>
                </mxCell>
                <mxCell id="6" value="Create an order" style="ellipse;whiteSpace=wrap;html=1;rounded=0;sketch=0;strokeColor=#E07A5F;fillColor=#F2CC8F;fontColor=#393C56;" vertex="1" parent="1">
                    <mxGeometry x="220" y="160" width="140" height="70" as="geometry"/>
                </mxCell>
                <mxCell id="7" value="&amp;lt;&amp;lt;extend&amp;gt;&amp;gt;" style="edgeStyle=none;html=1;startArrow=open;endArrow=none;startSize=12;verticalAlign=bottom;dashed=1;labelBackgroundColor=none;strokeColor=#E07A5F;fillColor=#F2CC8F;fontColor=#393C56;entryX=0;entryY=0.5;entryDx=0;entryDy=0;exitX=0;exitY=1;exitDx=0;exitDy=0;" edge="1" parent="1" source="6" target="5">
                    <mxGeometry width="160" relative="1" as="geometry">
                        <mxPoint x="580" y="285" as="sourcePoint"/>
                        <mxPoint x="700" y="390" as="targetPoint"/>
                    </mxGeometry>
                </mxCell>
            </root>
        </mxGraphModel>
    </diagram>
</mxfile>